<svg xmlns="http://www.w3.org/2000/svg" viewBox="0 0 8 4.28856" style="fill:#fe0000"><title>Ресурс 35</title><g id="Слой_2" data-name="Слой 2"><g id="Слой_1-2" data-name="Слой 1"><path d="M2.12317,3.38064a.12616.12616,0,0,0-.17237.046.143.143,0,1,1-.12386-.21439.12614.12614,0,1,0,0-.25228.39522.39522,0,1,0,.3422.59306A.12613.12613,0,0,0,2.12317,3.38064Z"/><path d="M6.83223,3.38053a.12615.12615,0,0,0-.17235.046A.143.143,0,1,1,6.536,3.2122a.12614.12614,0,0,0,0-.25228.39522.39522,0,1,0,.34227.59293A.1261.1261,0,0,0,6.83223,3.38053Z"/><path d="M7.99838,3.19a1.46741,1.46741,0,0,0-.14168-.4852.411.411,0,0,0,.09373-.28594.72567.72567,0,0,0-.11552-.37079.53209.53209,0,0,0-.44657-.26218,3.30586,3.30586,0,0,0-1.76675-.44079A.14133.14133,0,0,1,5.498,1.26619L5.0485.36722A.6607.6607,0,0,0,4.45433,0H4.11422A4.82954,4.82954,0,0,0,2.23714.34845a3.71729,3.71729,0,0,0-1.231.83461A3.88557,3.88557,0,0,0,.0093,3.00317a.39014.39014,0,0,0,.07739.33.39468.39468,0,0,0,.30913.14815H.90228a.93317.93317,0,0,0,1.84928,0H5.61132a.93317.93317,0,0,0,1.84928,0h.27785A.2621.2621,0,0,0,7.99838,3.19Zm-.684-1.13979A.26279.26279,0,0,1,7.623,2.185a.47345.47345,0,0,1,.07516.238c.00016.00929-.00022.01819-.00084.02684a1.47335,1.47335,0,0,0-.42669-.37022A.15116.15116,0,0,1,7.3144,2.05022ZM1.82694,4.03629a.68113.68113,0,1,1,.68112-.68112A.68189.68189,0,0,1,1.82694,4.03629Zm4.709,0a.68113.68113,0,1,1,.68113-.68112A.68189.68189,0,0,1,6.536,4.03629ZM7.7451,3.22592,7.73848,3.229H7.46062a.93317.93317,0,0,0-1.84928,0H2.75159a.93317.93317,0,0,0-1.84928,0H.39583a.14494.14494,0,0,1-.04694-.0078A1.66418,1.66418,0,0,1,1.82694,2.13587,1.22,1.22,0,0,1,2.94462,2.867a.12613.12613,0,1,0,.23111-.10111,1.47227,1.47227,0,0,0-1.34879-.88226,1.82064,1.82064,0,0,0-1.459.794,3.70006,3.70006,0,0,1,.81882-1.31847A3.91644,3.91644,0,0,1,4.11417.25227h.34011A.40978.40978,0,0,1,4.82282.48l.44949.899a.39287.39287,0,0,0,.34442.21833,5.24844,5.24844,0,0,1,.82272.07993A2.18485,2.18485,0,0,1,7.1,1.89379a.5.5,0,0,0-.06867.07541,1.47285,1.47285,0,0,0-1.84439.79728.12613.12613,0,0,0,.23116.101A1.21962,1.21962,0,0,1,7.74765,3.218Z"/><path d="M5.03739,1.42187,4.6687.56161a.26038.26038,0,0,0-.23961-.158H3.97964a3.02853,3.02853,0,0,0-1.93426.62585A.32087.32087,0,0,0,1.959,1.386a.32576.32576,0,0,0,.30638.21172H4.92147a.12613.12613,0,0,0,.11592-.17583ZM3.31533,1.3454H2.26538a.07432.07432,0,0,1-.07063-.04926.06851.06851,0,0,1,.01845-.07838,2.47081,2.47081,0,0,1,1.10211-.494V1.3454Zm.25226,0V.6819a3.29763,3.29763,0,0,1,.412-.026h.44945L4.43681.661l.29333.68443Z"/></g></g></svg>