<svg xmlns="http://www.w3.org/2000/svg" viewBox="0 0 6 5.06161" style="fill:#fe0000"><title>Ресурс 36</title><g id="Слой_2" data-name="Слой 2"><g id="Слой_1-2" data-name="Слой 1"><path d="M1.82317,4.23963,1.58081,2.88439a.11718.11718,0,1,0-.2307.04127l.24235,1.35523a.11722.11722,0,0,0,.11522.09658l.02077-.00185A.11717.11717,0,0,0,1.82317,4.23963Z"/><path d="M3.47112,3.24592a.11719.11719,0,0,0-.11719.11719v.89717a.11719.11719,0,1,0,.23437,0V3.36311A.11719.11719,0,0,0,3.47112,3.24592Z"/><path d="M3.55393,2.82217a.11708.11708,0,1,0,.03435.08285A.118.118,0,0,0,3.55393,2.82217Z"/><path d="M2.52888,2.78784A.1172.1172,0,0,0,2.4117,2.905V4.26027a.11719.11719,0,1,0,.23437,0V2.905A.1172.1172,0,0,0,2.52888,2.78784Z"/><path d="M4.55517,2.78968a.117.117,0,0,0-.136.09473L4.17683,4.23964a.11716.11716,0,0,0,.09472.136l.02077.00185a.11721.11721,0,0,0,.11522-.09657l.24235-1.35524A.11715.11715,0,0,0,4.55517,2.78968Z"/><path d="M3.06022,4.86158a.1171.1171,0,1,0,.03434.08284A.11756.11756,0,0,0,3.06022,4.86158Z"/><path d="M5.64844,1.26457H5.37109a.11719.11719,0,0,0,0,.23438h.27735a.11733.11733,0,0,1,.11719.11718v.375a.11733.11733,0,0,1-.11719.11719H.35156a.11732.11732,0,0,1-.11718-.11719v-.375A.11732.11732,0,0,1,.35156,1.499H.58984a.11719.11719,0,0,0,0-.23438H.35156A.352.352,0,0,0,0,1.61613v.375a.35212.35212,0,0,0,.27668.34346l.41982,2.174a.68337.68337,0,0,0,.67.553H2.44922a.11719.11719,0,0,0,0-.23438H1.36649a.44865.44865,0,0,1-.43988-.36307L.517,2.34284H5.483L5.07339,4.46415a.44865.44865,0,0,1-.43988.36306H3.47113a.11719.11719,0,0,0,0,.23438H4.63351a.68338.68338,0,0,0,.67-.553l.41981-2.174A.35212.35212,0,0,0,6,1.99113v-.375A.352.352,0,0,0,5.64844,1.26457Z"/><path d="M4.93841,1.29288,3.75309.10753A.36784.36784,0,0,0,3.2329.62776l.6368.63681H2.13029L2.7671.62775A.36785.36785,0,0,0,2.24688.10754L1.06158,1.29288a.36784.36784,0,0,0,.52021.52021L1.89592,1.499H4.08565l.017-.00138.31552.31553a.36784.36784,0,0,0,.5202-.52022Zm-3.52234.35446a.13347.13347,0,0,1-.18877-.18873L2.41261.27329A.13347.13347,0,1,1,2.60138.462Zm3.35661,0a.13346.13346,0,0,1-.18874,0L3.39864.462A.13347.13347,0,0,1,3.58739.27328L4.7727,1.45861A.1336.1336,0,0,1,4.77268,1.64734Z"/></g></g></svg>