<svg xmlns="http://www.w3.org/2000/svg" viewBox="0 0 4.23049 7" style="fill:#fe0000"><title>Ресурс 27</title><g id="Слой_2" data-name="Слой 2"><g id="Слой_1-2" data-name="Слой 1"><path d="M3.84619,0H.3843A.38473.38473,0,0,0,0,.3843V6.6157A.38473.38473,0,0,0,.3843,7H3.84619a.38473.38473,0,0,0,.3843-.3843V.3843A.38473.38473,0,0,0,3.84619,0ZM3.07653,5.80792a.15367.15367,0,0,0-.1535-.1535H.307V1.23018H.6151a.1535.1535,0,0,0,0-.307H.307V.3843A.07736.07736,0,0,1,.3843.307H3.84619A.07736.07736,0,0,1,3.92347.3843V.92318h-2.616a.1535.1535,0,1,0,0,.307h2.616V5.65442H3.6154a.1535.1535,0,0,0,0,.307h.30809v.65427A.07737.07737,0,0,1,3.8462,6.693H.3843A.07737.07737,0,0,1,.307,6.61569V5.96142H2.923A.15367.15367,0,0,0,3.07653,5.80792Z"/><path d="M2.23063,6.2314H1.99984a.15351.15351,0,0,0,0,.307h.23079a.15351.15351,0,1,0,0-.307Z"/></g></g></svg>