<svg xmlns="http://www.w3.org/2000/svg" viewBox="0 0 6 5.99991" style="fill:#fe0000"><title>Ресурс 29</title><g id="Слой_2" data-name="Слой 2"><g id="Слой_1-2" data-name="Слой 1"><path d="M5.80287,1.93071A2.99849,2.99849,0,0,0,3.00105,0H2.99949a2.98212,2.98212,0,0,0-.81912.11346l-.00349.001A2.98285,2.98285,0,0,0,.41816,1.47115a.13117.13117,0,0,0-.0158.04106.98632.98632,0,0,0-.116.205l-.00716.01546A3.00273,3.00273,0,0,0,2.99941,5.99991h.00251a2.99414,2.99414,0,0,0,1.87843-.66484.13009.13009,0,0,0,.11825-.08126l.0007-.00187.00558-.023a2.99842,2.99842,0,0,0,.798-3.29825ZM2.40428,5.29013l.00181-.00333a.68139.68139,0,0,0,.05126-.15556l.00034-.002a.27187.27187,0,0,1,.04211-.11239.29029.29029,0,0,1,.08729-.05342l.00133-.00055A.68322.68322,0,0,0,2.71177,4.892L2.713,4.89109a.78223.78223,0,0,0,.20124-.24c.02335-.041.04287-.08381.06415-.13149l.00069-.00165a.69028.69028,0,0,1,.10324-.18171c.087-.08953.27828-.00818.335.019l.00072.00033a1.47587,1.47587,0,0,1,.4016.26645l.0105.01078a4.60281,4.60281,0,0,0,.4119.38493l.00083.00066a1.77973,1.77973,0,0,0,.34337.208,2.75434,2.75434,0,0,1-1.5939.50843,2.6995,2.6995,0,0,1-.39991-.02971C2.557,5.68516,2.52236,5.66328,2.48924,5.64l-.00152-.001a.29613.29613,0,0,1-.1348-.19864A.35718.35718,0,0,1,2.40428,5.29013Zm2.00339-.47769A4.38487,4.38487,0,0,1,4.02,4.44961l-.01183-.012-.00083-.00082a1.70652,1.70652,0,0,0-.47489-.31835.53129.53129,0,0,0-.64145.03828l-.00125.0014a.89759.89759,0,0,0-.15128.25469l-.00287.00632c-.01662.03663-.03233.07123-.04958.10162l-.00039.00072a.52855.52855,0,0,1-.13221.1607.4476.4476,0,0,1-.07606.04234.52061.52061,0,0,0-.17183.11477l-.00235.00262a.497.497,0,0,0-.10259.23154.45718.45718,0,0,1-.02918.09392.59333.59333,0,0,0-.08226.27345l-.00006.00112,0,.00112a.42945.42945,0,0,0,.02928.1474A2.74,2.74,0,0,1,.51827,1.844l.00755-.01637.00088-.0021A.565.565,0,0,1,.63816,1.644a.17269.17269,0,0,1,.05316-.03584.30728.30728,0,0,1,.12331-.02692A.16422.16422,0,0,1,.88406,1.595a.10353.10353,0,0,1,.05368.07049.44026.44026,0,0,1-.04448.23834.595.595,0,0,0-.04334.42711l.001.003a.579.579,0,0,0,.40854.30674l.01984.00556.00364.00079a.49326.49326,0,0,1,.26362.13067.46238.46238,0,0,1,.05906.1785l.00013.001a.81655.81655,0,0,0,.07749.24559l.00069.0013a.79528.79528,0,0,0,.55417.32669c.21338.05184.431.10572.6468.16016a.24122.24122,0,0,0,.15345-.00231l.00092-.00034a.184.184,0,0,0,.1149-.14332c.02522-.16752-.18569-.35155-.20046-.364l0,0L2.9014,3.13944c-.12173-.09554-.22685-.178-.22685-.30164V2.83715a.11413.11413,0,0,1,.06628-.106c.02259-.0092.04194-.00412.11338.02948.01926.009.03916.0184.05762.02594A.23851.23851,0,0,0,3.184,2.75127L3.18627,2.749a.23539.23539,0,0,0,.05577-.1989c-.01653-.13505-.00482-.16683.04123-.197A.69584.69584,0,0,1,3.503,2.27706l.00144-.00028a1.53994,1.53994,0,0,0,.17229-.04753l.0016-.00059a1.79655,1.79655,0,0,0,.417-.23506c.017-.012.03662-.02351.05737-.03574l.0042-.00248a.49663.49663,0,0,0,.2517-.25614l.00107-.00283c.05164-.15853-.02774-.31505-.236-.46528a.78835.78835,0,0,0-.55425-.20089l-.00126.0002a.78219.78219,0,0,0-.20036.06567.71544.71544,0,0,1-.11466.04249.12456.12456,0,0,1-.0905-.01392l-.00037-.00029a.37834.37834,0,0,1,.06719-.07277A.49963.49963,0,0,0,3.42823.85776L3.42959.854A.34934.34934,0,0,0,3.26866.45313L3.26805.45279A.619.619,0,0,0,2.85312.38751a.99018.99018,0,0,1-.136.0064A.51081.51081,0,0,1,2.47155.31457,2.73474,2.73474,0,0,1,4.81964,5.04071,1.68531,1.68531,0,0,1,4.40767,4.81244ZM2.70618.6574A1.25637,1.25637,0,0,0,2.88045.64976L2.884.64916a.37507.37507,0,0,1,.24809.02932.09232.09232,0,0,1,.04787.09009.29.29,0,0,1-.07431.08566.35825.35825,0,0,0-.1563.29332v.00176l.00018.00174a.26052.26052,0,0,0,.112.189.38819.38819,0,0,0,.30334.05492l.00081-.0002A.93628.93628,0,0,0,3.52523,1.337l.00055-.00027a.563.563,0,0,1,.133-.04581.56879.56879,0,0,1,.36143.15406c.09562.06916.15027.13579.13926.16974-.01318.04049-.07153.07522-.1333.112l-.001.00062c-.02692.0159-.05476.03234-.08715.05487l-.00107.00077a1.52432,1.52432,0,0,1-.34864.19783,1.297,1.297,0,0,1-.14179.03826.918.918,0,0,0-.304.11108l-.00129.00079a.38933.38933,0,0,0-.16694.39419l-.00255-.0012-.00361-.00169a.3594.3594,0,0,0-.55781.31639.65587.65587,0,0,0,.3276.50766l.04785.03793.0139.01327C2.6328,3.35567,2.465,3.31426,2.29937,3.274a.58762.58762,0,0,1-.3853-.198.58417.58417,0,0,1-.04972-.167.69515.69515,0,0,0-.10557-.28777l-.00139-.00213L1.7557,2.6172a.71264.71264,0,0,0-.40638-.22553L1.3332,2.38709c-.13411-.03988-.21092-.0873-.23463-.14489a.37333.37333,0,0,1,.039-.24048l.00069-.00135a.65816.65816,0,0,0,.05635-.395l-.00038-.00188A.36247.36247,0,0,0,.99878,1.357L.99825,1.35669a.42976.42976,0,0,0-.157-.03925A2.734,2.734,0,0,1,2.16435.39382a.766.766,0,0,0,.54108.26355Z"/></g></g></svg>