<svg xmlns="http://www.w3.org/2000/svg" viewBox="0 0 8 5.125" style="fill:#fe0000"><title>Ресурс 31</title><g id="Слой_2" data-name="Слой 2"><g id="Слой_1-2" data-name="Слой 1"><path d="M1.75,4.125a.125.125,0,0,0-.125.125A.125.125,0,1,1,1.5,4.125a.125.125,0,0,0,0-.25.375.375,0,1,0,.375.375A.125.125,0,0,0,1.75,4.125Z"/><path d="M6.75,4.125a.125.125,0,0,0-.125.125A.125.125,0,1,1,6.5,4.125a.125.125,0,0,0,0-.25.375.375,0,1,0,.375.375A.125.125,0,0,0,6.75,4.125Z"/><path d="M8,2.5a.1246.1246,0,0,0-.03731-.089.62181.62181,0,0,0-.30817-.345l-.012-.00522-.41311-.15508L6.97777.9495,6.97661.94539A.62113.62113,0,0,0,6.378.5H5.5V.25A.2503.2503,0,0,0,5.25,0h-5A.2503.2503,0,0,0,0,.25v3.5A.2503.2503,0,0,0,.25,4H.66158a.86748.86748,0,0,0-.02752.125H.125a.125.125,0,0,0,0,.25H.63408a.87488.87488,0,0,0,1.73184,0H2.625A.37543.37543,0,0,0,3,4.75h.75a.37543.37543,0,0,0,.375-.375H5.63408a.87488.87488,0,0,0,1.73184,0H7.875a.125.125,0,0,0,0-.25H7.36592A.86746.86746,0,0,0,7.33841,4H7.75A.2503.2503,0,0,0,8,3.75V2.625a.63491.63491,0,0,0-.006-.08684A.12475.12475,0,0,0,8,2.5Zm-.25.75H7.625V3.125H7.75Zm-.09533-.875H5.5v-.25H7.10233l.4458.16734A.37607.37607,0,0,1,7.65467,2.375ZM6.378.75a.37266.37266,0,0,1,.35861.26534l.22625.85966H5.5V.75ZM.75,3.75H.25V3.125H4.12506a.125.125,0,0,0,0-.25H.25V.25h5v3.5h-3a.12511.12511,0,0,0-.02992.00375.87394.87394,0,0,0-1.44022,0A.12469.12469,0,0,0,.75,3.75ZM1.5,4.875a.625.625,0,1,1,.625-.625A.62572.62572,0,0,1,1.5,4.875Zm.86592-.75A.86746.86746,0,0,0,2.33841,4H2.6465a.37338.37338,0,0,0-.0215.125Zm1.50908.25A.12515.12515,0,0,1,3.75,4.5H3a.12515.12515,0,0,1-.125-.125V4.2503l0-.0003,0-.0003V4.125A.12515.12515,0,0,1,3,4h.75a.12515.12515,0,0,1,.125.125ZM4.1035,4H5.66158a.86748.86748,0,0,0-.02752.125H4.125A.37338.37338,0,0,0,4.1035,4ZM6.5,4.875a.625.625,0,1,1,.625-.625A.62572.62572,0,0,1,6.5,4.875ZM7.25,3.75a.12486.12486,0,0,0-.02989.00375.87394.87394,0,0,0-1.44022,0A.12469.12469,0,0,0,5.75,3.75H5.5V2.625H7.75v.25H7.625a.25029.25029,0,0,0-.25.25V3.25a.25029.25029,0,0,0,.25.25H7.75v.25Z"/><path d="M3.125,4.125a.12482.12482,0,1,0,.08844.03656A.12639.12639,0,0,0,3.125,4.125Z"/><path d="M4.62506,3.125H4.875a.125.125,0,0,0,0-.25H4.62506a.125.125,0,0,0,0,.25Z"/></g></g></svg>