<svg xmlns="http://www.w3.org/2000/svg" viewBox="0 0 8 4.13336" style="fill:#fe0000"><title>Ресурс 32</title><g id="Слой_2" data-name="Слой 2"><g id="Слой_1-2" data-name="Слой 1"><path d="M2.53333,2.93336H.8A.13333.13333,0,1,0,.8,3.2H2.53335a.13333.13333,0,1,0,0-.26665Z"/><path d="M7.78668,2.57335l-1.44-1.08A.1819.1819,0,0,0,6.31635,1.477a.92709.92709,0,0,0-.84968-.5437h-.8v-.4A.53334.53334,0,1,0,3.6.53334v.4c-.45334,0-.66666.72-.66666,1.2v.13333H.8a.8.8,0,0,0,0,1.6H2.95483a.3916.3916,0,0,0,.37851.26667H5.86667a.53442.53442,0,0,0,.46123-.26667H7.6a.39286.39286,0,0,0,.4-.4V3A.51817.51817,0,0,0,7.78668,2.57335ZM6.4,2.53335l.70667.53333H6.4Zm-2.53333-2a.26667.26667,0,1,1,.53334,0v.4H3.86667Zm-3.6,2.53333A.5349.5349,0,0,1,.8,2.53335H2.93334V3.6H.8A.5349.5349,0,0,1,.26667,3.06668Zm4,.8V2.53335H5.4L5.6,2.84v.33334l-.22667.69334Zm1.6,0H5.64444L5.85334,3.24a.049.049,0,0,0,.01333-.04V2.8A.09793.09793,0,0,0,5.84,2.72l-.26666-.4a.1646.1646,0,0,0-.10667-.05333H4.93332V2.13335h.13332a.13333.13333,0,1,0,0-.26665H4.53331a.13333.13333,0,1,0,0,.26665h.13332v.13333H4.1333A.126.126,0,0,0,4,2.4V3.86667H3.3333A.126.126,0,0,1,3.2,3.73335v-1.6c0-.42667.18667-.93333.4-.93333v.4a.13333.13333,0,1,0,.26666,0V1.2h1.6a.66019.66019,0,0,1,.66667.66666V3.6A.26739.26739,0,0,1,5.86667,3.86669Zm1.86668-.4A.1336.1336,0,0,1,7.6,3.6H6.4V3.33334h.93333A.126.126,0,0,0,7.46668,3.2V3.06668A.12127.12127,0,0,0,7.41335,2.96L6.4,2.2V1.86667l1.22667.92A.27833.27833,0,0,1,7.73336,3v.46667Z"/><path d="M5.06668,2.8h-.4a.13333.13333,0,0,0,0,.26666h.4a.13333.13333,0,0,0,0-.26666Z"/><path d="M5.06668,3.33335h-.4a.13333.13333,0,1,0,0,.26665h.4a.13333.13333,0,0,0,0-.26665Z"/></g></g></svg>