<svg xmlns="http://www.w3.org/2000/svg" viewBox="0 0 8 5.76791" style="fill:#fe0000"><title>Ресурс 34</title><g id="Слой_2" data-name="Слой 2"><g id="Слой_1-2" data-name="Слой 1"><path d="M6.73441,4.17126a.5282.5282,0,1,0,.52819.5282A.52878.52878,0,0,0,6.73441,4.17126Zm0,.79481a.26662.26662,0,1,1,.2666-.26661A.26691.26691,0,0,1,6.73441,4.96607Z"/><path d="M7.96962,3.671a1.60823,1.60823,0,0,0-1.47109-.56134A2.95555,2.95555,0,0,0,5.80784,1.937V.82906A.13078.13078,0,0,0,5.64228.703l-.21317.0588a.62644.62644,0,0,0-.29034.17549l-.112-.51506A.1308.1308,0,0,0,4.899.3192H4.67066V.13079a.1308.1308,0,0,0-.26159,0V.78916a.1308.1308,0,0,0,.26159,0V.58078h.1229l.16111.74107a.52882.52882,0,0,0-.13517.26232l-.37639.41375a.1308.1308,0,0,0,.19351.176l.22726-.24981a.53836.53836,0,0,0,.06013.09495,3.8889,3.8889,0,0,1,.48827.77467,1.07493,1.07493,0,0,1,.10242.80242,1.13459,1.13459,0,0,1-.88961.62363,1.30708,1.30708,0,0,1-1.16645-.24776.4249.4249,0,0,1-.13531-.323c.01383-.1972.1891-.4339.52093-.70352l.02752-.03084a.4839.4839,0,0,0-.39747-.76007H1.58718a.6902.6902,0,0,0-.68688.63251,4.23677,4.23677,0,0,0-.42762.51535A2.21409,2.21409,0,0,0,0,4.53985a.13078.13078,0,0,0,.13079.13079H.57838l-.00061.02881a1.06848,1.06848,0,0,0,2.10217.27044H5.7007a1.06836,1.06836,0,1,0,1.92707-.85555L7.9507,3.8571A.13073.13073,0,0,0,7.96962,3.671ZM2.71549,2.41623h.75882a.223.223,0,0,1,.21.297H2.71549Zm-1.12831,0h.86673v.297H1.17978A.42863.42863,0,0,1,1.58718,2.41623Zm.059,3.09011a.80779.80779,0,0,1-.80688-.80688l.00061-.02881h.27887l-.0008.02881a.5282.5282,0,1,0,1.05639,0l-.0008-.02881h.27888l.00061.02881A.80779.80779,0,0,1,1.64621,5.50634Zm-.2666-.80688.00158-.02881h.53006l.00159.02881a.26662.26662,0,1,1-.53323,0Zm1.12494-.29041H.58291a1.70927,1.70927,0,0,1,.2612-.48565,1.49777,1.49777,0,0,1,1.3723-.54755c.26361.01854.42922.088.49228.20646C2.79109,3.73719,2.7224,4.01514,2.50455,4.40905Zm2.62293.29927h-2.413l.00022-.00886A1.07524,1.07524,0,0,0,2.708,4.58112c.2025-.35535.40416-.79749.23162-1.12168a.79644.79644,0,0,0-.70482-.34451,1.75116,1.75116,0,0,0-1.60415.657,1.9719,1.9719,0,0,0-.32246.6372H.26938a2.93871,2.93871,0,0,1,.81344-1.43421H3.42191a1.08487,1.08487,0,0,0-.35952.65593.68023.68023,0,0,0,.20454.51926,1.54713,1.54713,0,0,0,1.40876.32639,1.8538,1.8538,0,0,0,.50095-.17281,1.60492,1.60492,0,0,0-.04938.39583Zm.37117-3.69437.04759-.01313v.63976c-.13449-.14588-.24864-.26071-.31308-.32417A.368.368,0,0,1,5.49865,1.01395Zm-.36956.84278a.2691.2691,0,0,1-.05635-.2019.27275.27275,0,0,1,.03148-.09773A4.32746,4.32746,0,0,1,6.24284,3.16932a1.60261,1.60261,0,0,0-.42675.212A2.50584,2.50584,0,0,0,5.12909,1.85673ZM6.73441,5.50634a.80688.80688,0,1,1,.80689-.80688A.8078.8078,0,0,1,6.73441,5.50634ZM7.45854,3.9147a1.06777,1.06777,0,0,0-1.79261.78475l.00022.00886h-.2771l-.00021-.00886A1.34569,1.34569,0,0,1,7.6779,3.73994Z"/></g></g></svg>