<svg xmlns="http://www.w3.org/2000/svg" viewBox="0 0 5.29888 6.98368" style="fill:#fe0000"><title>Ресурс 26</title><g id="Слой_2" data-name="Слой 2"><g id="Слой_1-2" data-name="Слой 1"><path d="M5.09042,1.62027A2.65065,2.65065,0,0,0,2.65014,0h0A2.65065,2.65065,0,0,0,0,2.65146,2.99727,2.99727,0,0,0,.38278,3.90712a10.92457,10.92457,0,0,0,.84686,1.37639A20.55354,20.55354,0,0,0,2.53431,6.9323a.15471.15471,0,0,0,.2182.01206l.01214-.01215.00169-.00191c.25922-.29324,2.53254-2.90457,2.53254-4.27885A2.63647,2.63647,0,0,0,5.09042,1.62027ZM2.65011.30905A2.34371,2.34371,0,0,1,4.99117,2.65011a2.52949,2.52949,0,0,1-.30176,1.02511,9.41813,9.41813,0,0,1-.70135,1.18263A21.10408,21.10408,0,0,1,2.65015,6.59361a21.32487,21.32487,0,0,1-1.338-1.73678,9.41482,9.41482,0,0,1-.70135-1.182A2.5272,2.5272,0,0,1,.30905,2.65011,2.34371,2.34371,0,0,1,2.65011.30905Z"/><path d="M2.69882,4.21018h.00141a1.445,1.445,0,0,0-.00271-2.88994h0a1.445,1.445,0,0,0,.00133,2.88994ZM2.6975,1.63064A1.13592,1.13592,0,1,1,1.56158,2.76656,1.13721,1.13721,0,0,1,2.6975,1.63064Z"/></g></g></svg>