<svg xmlns="http://www.w3.org/2000/svg" viewBox="0 0 8.02701 3" style="fill:#fe0000"><title>Ресурс 33</title><g id="Слой_2" data-name="Слой 2"><g id="Слой_1-2" data-name="Слой 1"><path d="M7.90941,2.0108a1.65878,1.65878,0,0,0-.69205.13359,1.419,1.419,0,0,1-.54234.11678,2.68058,2.68058,0,0,0,.96345-.61756A1.36228,1.36228,0,0,0,8.01889.90636.24311.24311,0,0,0,7.778.62838H5.43359L4.68285.09212A.49191.49191,0,0,0,4.39538,0H3.38514a.24353.24353,0,0,0-.24326.24326v.3851H2.98655A.13286.13286,0,0,1,2.892.58919L2.80429.50152a.37016.37016,0,0,0-.317-.10378L1.17175.60014A1.00383,1.00383,0,0,0,.7702.756l-.364.2427a.36892.36892,0,0,0-.08344.53743l.48668.60836L.809,2.14439a1.65577,1.65577,0,0,0-.69145-.13361.11759.11759,0,0,0,0,.23517,1.43752,1.43752,0,0,1,.60653.11774,1.6558,1.6558,0,0,0,.69145.1336,1.657,1.657,0,0,0,.69161-.1336,1.43813,1.43813,0,0,1,.6067-.11774,1.43906,1.43906,0,0,1,.60691.11774,1.65759,1.65759,0,0,0,.69183.1336,1.65689,1.65689,0,0,0,.69162-.1336A1.43831,1.43831,0,0,1,5.311,2.246a1.44008,1.44008,0,0,1,.60718.11775,1.6588,1.6588,0,0,0,.69206.13359,1.65871,1.65871,0,0,0,.69205-.13359A1.44028,1.44028,0,0,1,7.90942,2.246a.11758.11758,0,1,0,0-.23515ZM3.87973.23517h.51564a.258.258,0,0,1,.15079.04832L5.029.62838H3.87973V.23517ZM3.377.24326A.00809.00809,0,0,1,3.38511.23517h.25943V.62838H3.377V.24326ZM6.14132,2.195c-.048-.0157-.09284-.033-.13834-.05062a1.65908,1.65908,0,0,0-.69205-.13357,1.65693,1.65693,0,0,0-.69162.1336,1.43827,1.43827,0,0,1-.60672.11774,1.43913,1.43913,0,0,1-.60693-.11774,1.65745,1.65745,0,0,0-.69181-.1336,1.657,1.657,0,0,0-.69161.1336,1.43813,1.43813,0,0,1-.6067.11774,1.83,1.83,0,0,1-.22069-.01221L.50633,1.38928a.13613.13613,0,0,1-.0149-.023H.99734a.11759.11759,0,0,0,0-.23517H.63158l.269-.17935A.76766.76766,0,0,1,1.20748.83258L2.52307.63018A.13431.13431,0,0,1,2.638.66781l.08765.08765a.36648.36648,0,0,0,.26088.10807H7.778l.00631.00276L7.7861.87284a.95217.95217,0,0,1-.07806.25822H1.5a.11758.11758,0,0,0,0,.23516H7.56563A2.622,2.622,0,0,1,6.14132,2.195Z"/><path d="M7.39076,2.70625a.11759.11759,0,0,0-.152-.06742l-.02144.00828A1.9084,1.9084,0,0,1,7.0001,2.721a.11758.11758,0,1,0,.05912.22761,2.12449,2.12449,0,0,0,.243-.08223l.02115-.00817A.11758.11758,0,0,0,7.39076,2.70625Z"/><path d="M6.53122,2.76345A1.41485,1.41485,0,0,1,6.003,2.64708a1.65878,1.65878,0,0,0-.69205-.13359,1.65693,1.65693,0,0,0-.69162.1336,1.43827,1.43827,0,0,1-.60672.11774,1.4392,1.4392,0,0,1-.60693-.11774,1.65745,1.65745,0,0,0-.69181-.1336,1.657,1.657,0,0,0-.69161.1336,1.41271,1.41271,0,0,1-.52657.11632.11758.11758,0,0,0,.00863.235,1.6311,1.6311,0,0,0,.60287-.132,1.43829,1.43829,0,0,1,.6067-.11774,1.43939,1.43939,0,0,1,.60693.11774A1.65742,1.65742,0,0,0,4.01261,3a1.6567,1.6567,0,0,0,.69162-.13361A1.43847,1.43847,0,0,1,5.311,2.74865a1.44006,1.44006,0,0,1,.60718.11776,1.63334,1.63334,0,0,0,.60463.13207.11759.11759,0,0,0,.00846-.235Z"/><path d="M1.02705,2.7213a1.90288,1.90288,0,0,1-.21814-.07425.11758.11758,0,0,0-.085.21928A2.1212,2.1212,0,0,0,.968,2.94894a.11758.11758,0,0,0,.059-.22764Z"/></g></g></svg>