<svg xmlns="http://www.w3.org/2000/svg" viewBox="0 0 5.42376 6" style="fill:#fe0000"><title>Ресурс 30</title><g id="Слой_2" data-name="Слой 2"><g id="Слой_1-2" data-name="Слой 1"><path d="M1.67937,3.95068V2.04933A1.11773,1.11773,0,0,0,1.70848.01239a.11954.11954,0,0,0-.17232.10726V.83159A.08443.08443,0,0,1,1.47562.913L.833,1.10575a.01377.01377,0,0,1-.01774-.01319V.11965A.11953.11953,0,0,0,.64291.01242,1.11774,1.11774,0,0,0,.67207,2.04933V3.95059A1.11774,1.11774,0,0,0,.64291,5.9875a.11954.11954,0,0,0,.17237-.10723V4.90745A.01376.01376,0,0,1,.833,4.89427l.64393.19318a.08256.08256,0,0,1,.05921.07956v.71335a.11938.11938,0,0,0,.17238.10723,1.11773,1.11773,0,0,0-.02917-2.03691ZM1.624,4.8818.78425,4.62988a.16344.16344,0,0,0-.04694-.00694.162.162,0,0,0-.16124.16184V5.664a.8714.8714,0,0,1-.33685-.68792.89282.89282,0,0,1,.59465-.83374.12.12,0,0,0,.07742-.11177V1.96945a.12.12,0,0,0-.0774-.11177.89284.89284,0,0,1-.59467-.83375A.87142.87142,0,0,1,.57607.336v.87922a.16173.16173,0,0,0,.20818.1549l.83025-.24908A.22435.22435,0,0,0,1.77538.90482V.336a.87141.87141,0,0,1,.33684.68792.89283.89283,0,0,1-.59465.83375.11993.11993,0,0,0-.07742.11177V4.03057a.12.12,0,0,0,.07741.11177.8928.8928,0,0,1,.59466.83374.87139.87139,0,0,1-.33684.68792V5.08528A.21115.21115,0,0,0,1.624,4.8818Z"/><path d="M5.42376,1.02393A1.12731,1.12731,0,0,0,4.78085.01241.11957.11957,0,0,0,4.60849.1197v.721a.07224.07224,0,0,1-.0518.06961l-.64033.1921a.02232.02232,0,0,1-.02876-.02139V.1197A.11957.11957,0,0,0,3.71522.01242a1.11775,1.11775,0,0,0,.02917,2.03691v2.5485a.79167.79167,0,1,0,1.0073,0V2.04933A1.11965,1.11965,0,0,0,5.42376,1.02393ZM3.93243,4.75512a.11948.11948,0,0,0,.05118-.098V1.96945a.11994.11994,0,0,0-.07741-.11177.89283.89283,0,0,1-.59466-.83375A.87141.87141,0,0,1,3.64838.336v.85618a.17886.17886,0,0,0,.23026.17132l.82858-.24859A.19587.19587,0,0,0,4.8477.92614V.336a.87143.87143,0,0,1,.33684.68793.89285.89285,0,0,1-.59465.83375.11994.11994,0,0,0-.07741.11177V4.65712a.11949.11949,0,0,0,.05116.098.55247.55247,0,1,1-.63121,0Z"/><path d="M4.248,4.80059a.40765.40765,0,1,0,.40764.40765A.4081.4081,0,0,0,4.248,4.80059Zm.16842.40765A.16842.16842,0,1,1,4.248,5.03981.16861.16861,0,0,1,4.41646,5.20824Z"/><path d="M1.2648,2.04682a.12591.12591,0,1,0,.03693.0891A.12688.12688,0,0,0,1.2648,2.04682Z"/><path d="M4.33712,2.43086a.12589.12589,0,1,0,.03694.0891A.12688.12688,0,0,0,4.33712,2.43086Z"/><path d="M4.248,2.81741a.126.126,0,0,0-.126.126V4.40073a.126.126,0,0,0,.252,0V2.94342A.126.126,0,0,0,4.248,2.81741Z"/><path d="M1.17572,2.39394a.126.126,0,0,0-.126.126v1.4573a.126.126,0,0,0,.252,0V2.52A.126.126,0,0,0,1.17572,2.39394Z"/></g></g></svg>