<svg xmlns="http://www.w3.org/2000/svg" viewBox="0 0 5.97173 4.5935" style="fill:#fe0000"><title>Ресурс 28</title><g id="Слой_2" data-name="Слой 2"><g id="Слой_1-2" data-name="Слой 1"><path d="M5.64389,0H.32785A.32822.32822,0,0,0,0,.32785v3.9378a.32822.32822,0,0,0,.32785.32785h5.316a.32822.32822,0,0,0,.32784-.32785V.32785A.32822.32822,0,0,0,5.64389,0Zm.06593.32785V4.26566a.066.066,0,0,1-.06593.06593H.32785a.066.066,0,0,1-.06593-.06593V.32785A.066.066,0,0,1,.32785.26192h5.316A.066.066,0,0,1,5.70982.32785Z"/><path d="M5.45839.39427a.12986.12986,0,0,0-.0956.03018L3.09164,2.33231a.16411.16411,0,0,1-.21157,0L.609.42443A.131.131,0,0,0,.44053.625l2.2711,1.90774a.42494.42494,0,0,0,.54846,0L5.53119.62506a.131.131,0,0,0-.0728-.23079Z"/><path d="M1.933,2.46265h0a.131.131,0,0,0-.126.04037L.42923,3.97919a.131.131,0,1,0,.19146.17864L1.99846,2.68166a.13094.13094,0,0,0-.06545-.219Z"/><path d="M4.16473,2.503a.131.131,0,1,0-.19147.17864l1.378,1.47643.00051.00053A.131.131,0,0,0,5.54324,3.98Z"/></g></g></svg>